<svg xmlns="http://www.w3.org/2000/svg" xml:space="preserve" width="294.148" height="293.76" style="shape-rendering:geometricPrecision;text-rendering:geometricPrecision;image-rendering:optimizeQuality;fill-rule:evenodd;clip-rule:evenodd" viewBox="0 0 7434.05 7424.25"><defs><style>.str0{stroke:#1E6F5C;stroke-width:19.1;stroke-miterlimit:22.9256}.fil0{fill:#1E6F5C}</style></defs><g id="Layer_x0020_1"><g id="_2961868401168"><path class="fil0 str0" d="M7414.7 2269.61c0 913.51-542.02 1700.34-1321.97 2056.67l-2380.6-2643.93-1096.82 1217.11c-104.38 115.82-96.58 131.93-379.2 131.93h-137.53c-112.15 0-261.96-13.95-387.44 133.81C1143.95 3795.13 576.75 4425.06 9.55 5054.99V9.54l5084.03.84C6363.47-23.88 7414.69 997.34 7414.69 2269.6z"/><path class="fil0 str0" d="M3806.09 2706.55 7414.7 7414.7H4615.96L3215.89 5390.24h1096.72l-810.86-1252.12c-164.72-251.51-190.38-314.54-46.35-631l350.68-800.56z"/></g></g></svg>